<?xml version="1.0" encoding="utf-8"?>
<!-- Generator: Adobe Illustrator 16.0.0, SVG Export Plug-In . SVG Version: 6.00 Build 0)  -->
<!DOCTYPE svg PUBLIC "-//W3C//DTD SVG 1.1//EN" "http://www.w3.org/Graphics/SVG/1.1/DTD/svg11.dtd">
<svg version="1.1" id="Layer_1" xmlns="http://www.w3.org/2000/svg" xmlns:xlink="http://www.w3.org/1999/xlink" x="0px" y="0px"
	 width="960px" height="960px" viewBox="0 0 960 960" enable-background="new 0 0 960 960" xml:space="preserve">
<g>
	<path fill="#434345" d="M456.451,445.115c0,0-4.317,12.331,1.849,24.045c6.166,11.714,13.566,28.982,1.851,37.613
		c-4.934,1.232-17.265-20.346-14.182-36.379c-4.932,9.25-2.468,30.829,9.249,37.612c0,4.934-20.348,5.551-24.663-12.949
		C426.24,476.56,436.72,456.833,456.451,445.115z"/>
	<path fill="#434345" d="M526.024,476.196c0,0-10.142-8.233-23.255-6.39c-13.109,1.837-31.856,2.958-36.018-10.981
		c0.507-5.064,24.985-9.367,39.027-1.044c-7.032-7.773-28.175-12.752-38.521-4.021c-4.644-1.667,1.66-21.022,20.529-18.828
		C506.654,437.13,521.671,453.664,526.024,476.196z"/>
	<path fill="#434345" d="M463.234,515.258c0,0,12.858-2.325,20.004-13.467c7.154-11.139,18.521-26.089,31.81-20.156
		c3.505,3.686-9.188,25.055-24.655,30.279c10.479-0.269,28.039-13.057,28.16-26.594c4.293-2.434,14.861,14.967,0.896,27.844
		C505.488,526.032,483.152,526.646,463.234,515.258z"/>
</g>
</svg>
